# xmcd
#
# Track frame offsets:
#	182
#	15775
#	35505
#	67540
#	90017
#
# Disc length: 1391 seconds
#
# Revision: 0
# Processed by: cddbd v1.5.2PL0 Copyright (c) Steve Scherf et al.
# Submitted via: EasyCDDAExtractor 10.0.5.1
#
DISCID=1f056d05
DTITLE=Guillermo Cazenave - Sonidos del Nuevo Milenio (Música para sanar su vi
DTITLE=da)
DYEAR=1998
DGENRE=Meditative
TTITLE0=La familia (Cancer)
TTITLE1=El trabajo (Virgo)
TTITLE2=El amor (Libra)
TTITLE3=La alegría (Sagitario)
TTITLE4=Armonía total (Meditacíon Astrosónica)
EXTD=
EXTT0=
EXTT1=
EXTT2=
EXTT3=
EXTT4=
PLAYORDER=
